<svg width="472" height="69" viewBox="0 0 472 69" fill="none" xmlns="http://www.w3.org/2000/svg">
<path d="M43.9704 12.75C44.8138 12.75 45.2354 13.1717 45.2354 14.015V19.4775C45.2354 20.3208 44.8138 20.7425 43.9704 20.7425H15.1629C14.0513 20.7425 13.2654 21.03 12.8054 21.605C12.3454 22.18 12.1154 22.9658 12.1154 23.9625V25.9175C12.1154 28.0642 13.1121 29.1375 15.1054 29.1375H36.6679C40.0029 29.1375 42.5138 30 44.2004 31.725C45.8871 33.4117 46.7304 35.8458 46.7304 39.0275V43.6275C46.7304 46.4258 45.9063 48.6875 44.2579 50.4125C42.6096 52.1375 40.0413 53 36.5529 53H4.69794C3.81627 53 3.37544 52.5783 3.37544 51.735V46.2725C3.37544 45.4292 3.81627 45.0075 4.69794 45.0075H34.8854C35.9971 45.0075 36.7829 44.72 37.2429 44.145C37.7029 43.57 37.9329 42.7842 37.9329 41.7875V39.43C37.9329 37.2833 36.9363 36.21 34.9429 36.21H13.3804C10.0454 36.21 7.5346 35.3667 5.84794 33.68C4.16127 31.955 3.31794 29.5017 3.31794 26.32V22.1225C3.31794 19.3242 4.1421 17.0625 5.79044 15.3375C7.43877 13.6125 10.0071 12.75 13.4954 12.75H43.9704ZM113.512 12.75C117.921 12.75 121.083 13.7467 123 15.74C124.916 17.7333 125.875 20.685 125.875 24.595V28.85C125.875 32.76 124.916 35.7117 123 37.705C121.083 39.6983 117.921 40.695 113.512 40.695H89.7072V51.735C89.7072 52.5783 89.2855 53 88.4422 53H82.2322C81.3505 53 80.9097 52.5783 80.9097 51.735V14.475C80.9097 13.325 81.4847 12.75 82.6347 12.75H113.512ZM89.7072 33.105H111.73C113.685 33.105 115.065 32.6833 115.87 31.84C116.675 30.9967 117.077 29.7125 117.077 27.9875V25.8025C117.077 24.0775 116.675 22.7933 115.87 21.95C115.065 21.1067 113.685 20.685 111.73 20.685H90.4547C89.9564 20.685 89.7072 20.915 89.7072 21.375V33.105ZM166.692 12.75C167.535 12.75 167.957 13.1717 167.957 14.015V51.735C167.957 52.5783 167.535 53 166.692 53H160.482C159.6 53 159.159 52.5783 159.159 51.735V14.015C159.159 13.1717 159.6 12.75 160.482 12.75H166.692ZM244.784 12.75C245.628 12.75 246.049 13.1717 246.049 14.015V19.65C246.049 20.5317 245.628 20.9725 244.784 20.9725H219.197C217.702 20.9725 216.456 21.1067 215.459 21.375C214.501 21.605 213.734 22.0267 213.159 22.64C212.584 23.215 212.163 24.0008 211.894 24.9975C211.664 25.9942 211.549 27.2592 211.549 28.7925V36.9575C211.549 38.4908 211.664 39.775 211.894 40.81C212.163 41.8067 212.584 42.6117 213.159 43.225C213.734 43.8 214.501 44.2217 215.459 44.49C216.456 44.72 217.702 44.835 219.197 44.835H244.784C245.628 44.835 246.049 45.2567 246.049 46.1V51.735C246.049 52.5783 245.628 53 244.784 53H218.852C215.938 53 213.466 52.7317 211.434 52.195C209.403 51.6583 207.735 50.7958 206.432 49.6075C205.167 48.3808 204.228 46.8092 203.614 44.8925C203.039 42.9375 202.752 40.58 202.752 37.82V27.93C202.752 25.17 203.039 22.8317 203.614 20.915C204.228 18.9983 205.167 17.4458 206.432 16.2575C207.735 15.0308 209.403 14.1492 211.434 13.6125C213.466 13.0375 215.938 12.75 218.852 12.75H244.784ZM320.717 12.75C321.598 12.75 322.039 13.1717 322.039 14.015V19.4775C322.039 20.3208 321.598 20.7425 320.717 20.7425H295.589C294.094 20.7425 292.848 20.8767 291.852 21.145C290.893 21.375 290.107 21.7967 289.494 22.41C288.919 22.985 288.517 23.79 288.287 24.825C288.057 25.8217 287.942 27.0675 287.942 28.5625V29.1375H320.429C321.272 29.1375 321.694 29.5592 321.694 30.4025V34.945C321.694 35.7883 321.272 36.21 320.429 36.21H287.942V37.1875C287.942 38.6825 288.057 39.9475 288.287 40.9825C288.517 41.9792 288.919 42.7842 289.494 43.3975C290.107 43.9725 290.893 44.3942 291.852 44.6625C292.848 44.8925 294.094 45.0075 295.589 45.0075H320.717C321.598 45.0075 322.039 45.4292 322.039 46.2725V51.735C322.039 52.5783 321.598 53 320.717 53H295.417C292.503 53 290.031 52.7317 287.999 52.195C285.967 51.6583 284.3 50.7958 282.997 49.6075C281.732 48.3808 280.792 46.8092 280.179 44.8925C279.604 42.9375 279.317 40.58 279.317 37.82V27.93C279.317 25.17 279.604 22.8317 280.179 20.915C280.792 18.9983 281.732 17.4458 282.997 16.2575C284.3 15.0308 285.967 14.1492 287.999 13.6125C290.031 13.0375 292.503 12.75 295.417 12.75H320.717Z" fill="white"/>
<path d="M401.019 12.75C402.476 12.75 403.703 13.0567 404.699 13.67C405.696 14.245 406.674 15.395 407.632 17.12L426.664 51.6775C426.856 52.0608 426.894 52.3867 426.779 52.655C426.703 52.885 426.434 53 425.974 53H418.672C418.02 53 417.579 52.7508 417.349 52.2525L413.267 44.835H386.242L382.274 52.2525C382.006 52.7508 381.565 53 380.952 53H373.477C372.979 53 372.672 52.885 372.557 52.655C372.48 52.3867 372.538 52.0608 372.729 51.6775L391.589 17.12C392.548 15.395 393.487 14.245 394.407 13.67C395.327 13.0567 396.4 12.75 397.627 12.75H401.019ZM389.864 38.165H409.644L400.502 21.3175C400.349 21.0492 400.138 20.915 399.869 20.915H399.524C399.256 20.915 399.045 21.0492 398.892 21.3175L389.864 38.165ZM466.662 12.75C467.505 12.75 467.927 13.1717 467.927 14.015V51.735C467.927 52.5783 467.505 53 466.662 53H460.452C459.57 53 459.129 52.5783 459.129 51.735V14.015C459.129 13.1717 459.57 12.75 460.452 12.75H466.662Z" fill="#FA7500"/>
</svg>
