<svg width="200" height="200" viewBox="0 0 200 200" fill="none" xmlns="http://www.w3.org/2000/svg">
<rect width="200" height="200" fill="#F37721"/>
<path d="M169.088 61.4616H154.977C152.78 61.4628 150.604 61.0268 148.575 60.1787C146.545 59.3305 144.701 58.0869 143.148 56.5188C141.595 54.9511 140.363 53.09 139.522 51.0418C138.682 48.9936 138.25 46.7985 138.25 44.5816V30.3357C138.25 29.5525 138.097 28.777 137.8 28.0534C137.503 27.3299 137.067 26.6726 136.518 26.119C135.969 25.5654 135.317 25.1265 134.6 24.8272C133.883 24.528 133.114 24.3743 132.338 24.375H111.389C110.632 24.3743 109.882 24.5243 109.182 24.8165C108.482 25.1087 107.846 25.5373 107.311 26.0778C106.775 26.6183 106.35 27.2601 106.061 27.9664C105.771 28.6727 105.623 29.4297 105.623 30.194V51.4186C105.623 52.1908 105.773 52.9556 106.065 53.6692C106.357 54.3828 106.786 55.0313 107.327 55.5775C107.868 56.1238 108.51 56.5571 109.217 56.8528C109.924 57.1485 110.681 57.3006 111.447 57.3006H125.646C130.083 57.3006 134.338 59.0784 137.475 62.2434C140.612 65.4098 142.373 69.7036 142.373 74.1806V88.4685C142.373 90.0396 142.992 91.5464 144.093 92.6574C145.193 93.7683 146.687 94.3925 148.243 94.3925H169.156C170.706 94.3911 172.193 93.7685 173.289 92.6617C174.384 91.5548 175 90.0541 175 88.4895V67.4485C175.002 66.6635 174.851 65.8858 174.555 65.1598C174.258 64.4339 173.823 63.774 173.274 63.2179C172.725 62.6618 172.073 62.2205 171.355 61.9192C170.636 61.6178 169.866 61.4623 169.088 61.4616Z" fill="white"/>
<path d="M169.229 105.752H148.197C146.651 105.752 145.168 106.372 144.075 107.475C142.982 108.578 142.368 110.074 142.368 111.634V125.964C142.367 130.441 140.605 134.734 137.47 137.902C134.332 141.067 130.078 142.844 125.641 142.844H111.514C109.959 142.844 108.467 143.468 107.367 144.578C106.267 145.688 105.649 147.193 105.649 148.763V169.872C105.649 171.436 106.265 172.936 107.361 174.043C108.457 175.149 109.943 175.77 111.493 175.77H132.312C133.089 175.77 133.859 175.615 134.577 175.315C135.294 175.015 135.947 174.576 136.496 174.021C137.046 173.467 137.481 172.808 137.779 172.084C138.076 171.359 138.229 170.583 138.229 169.799V155.558C138.23 151.081 139.992 146.788 143.127 143.621C146.265 140.456 150.52 138.678 154.956 138.678H169.073C170.639 138.678 172.142 138.05 173.249 136.932C174.357 135.814 174.979 134.298 174.979 132.717V111.571C174.979 110.031 174.374 108.553 173.296 107.462C172.218 106.372 170.755 105.757 169.229 105.752Z" fill="white"/>
<path d="M88.5533 142.823H74.3535C69.9188 142.823 65.6657 141.045 62.5299 137.881C60.9758 136.313 59.7429 134.452 58.9016 132.404C58.0604 130.356 57.6271 128.161 57.6268 125.943V111.65C57.6268 110.08 57.0089 108.575 55.909 107.465C54.809 106.355 53.3172 105.731 51.7617 105.731H30.8442C30.0767 105.731 29.3168 105.884 28.6077 106.18C27.8987 106.477 27.2544 106.911 26.7117 107.459C26.169 108.007 25.7386 108.657 25.4449 109.372C25.1512 110.088 25 110.855 25 111.629V132.686C25 133.47 25.153 134.247 25.4504 134.971C25.7477 135.695 26.1836 136.354 26.7331 136.908C27.2825 137.463 27.9348 137.903 28.6527 138.203C29.3705 138.503 30.14 138.657 30.917 138.657H45.0284C49.4646 138.658 53.7189 140.436 56.8573 143.6C59.9925 146.767 61.7541 151.06 61.7552 155.537V169.767C61.7566 171.348 62.3793 172.863 63.4867 173.981C64.5941 175.098 66.0957 175.727 67.6618 175.728H88.6365C90.1654 175.727 91.6312 175.113 92.7123 174.022C93.7934 172.931 94.4014 171.452 94.4027 169.909V148.679C94.3959 147.12 93.7759 145.627 92.6791 144.529C91.5822 143.431 90.0983 142.818 88.5533 142.823Z" fill="white"/>
<path d="M30.7657 94.3925H51.8028C52.568 94.3925 53.3257 94.2403 54.0325 93.9446C54.7394 93.6489 55.3816 93.2156 55.9224 92.6693C56.4632 92.1231 56.8921 91.4746 57.1845 90.761C57.4768 90.0474 57.6269 89.2827 57.6262 88.5105V74.1806C57.626 71.9633 58.0589 69.7677 58.9003 67.7194C59.7416 65.6711 60.9748 63.8103 62.5294 62.2434C65.6651 59.0787 69.9182 57.3008 74.353 57.3006H88.5164C90.0719 57.3006 91.5637 56.6771 92.6636 55.5671C93.7635 54.4571 94.3814 52.9516 94.3814 51.3819V30.2728C94.3814 28.7086 93.7657 27.2085 92.6697 26.1024C91.5737 24.9964 90.0872 24.375 88.5372 24.375H67.6717C66.8949 24.3743 66.1255 24.5281 65.4077 24.8276C64.6898 25.1271 64.0375 25.5665 63.488 26.1205C62.9385 26.6746 62.5026 27.3325 62.2052 28.0567C61.9077 28.7809 61.7546 29.5571 61.7546 30.341V44.5816C61.755 46.7985 61.3226 48.9936 60.4822 51.0418C59.6418 53.09 58.4098 54.9511 56.8567 56.5188C55.3034 58.0864 53.4593 59.3298 51.4296 60.1779C49.4 61.026 47.2246 61.4622 45.0279 61.4616H30.9217C29.3547 61.463 27.8523 62.0921 26.7447 63.2108C25.6372 64.3295 25.0151 65.8462 25.0151 67.4275V88.5682C25.015 90.1092 25.6202 91.5875 26.6981 92.6791C27.776 93.7708 29.2386 94.3869 30.7657 94.3925Z" fill="white"/>
<path d="M114.138 76.8607H87.1616C81.5546 76.8607 77.0093 81.4477 77.0093 87.1059V114.33C77.0093 119.988 81.5546 124.575 87.1616 124.575H114.138C119.745 124.575 124.291 119.988 124.291 114.33V87.1059C124.291 81.4477 119.745 76.8607 114.138 76.8607Z" fill="white"/>
</svg>
